<svg width="42" height="42" viewBox="0 0 42 42" fill="none" xmlns="http://www.w3.org/2000/svg">
<circle cx="21" cy="21" r="21" fill="#7FBABA" fill-opacity="0.6"/>
<mask id="mask0_708_3" style="mask-type:alpha" maskUnits="userSpaceOnUse" x="1" y="0" width="41" height="41">
<circle cx="21.7924" cy="20.2076" r="19.8113" fill="#D9D9D9"/>
</mask>
<g mask="url(#mask0_708_3)">
<circle cx="21.7924" cy="20.2076" r="19.8113" fill="#7FBABA"/>
<path d="M16.7697 20.7374L8.37696 7.29513H19.7472L24.7968 15.3744L29.9508 7.29513H34.4954L26.9385 18.8221L35.9232 33.1698L24.553 33.1872L18.8766 24.1328L13.0086 33.1872H8.44661L16.7697 20.7374Z" fill="#FFB7C8" fill-opacity="0.69"/>
<path d="M18.9333 19.7225L14.0842 11.9558H20.6536L23.5712 16.6239L26.5491 11.9558H29.1748L24.8086 18.6158L29.9998 26.9056L23.4303 26.9157L20.1506 21.6843L16.7603 26.9157H14.1244L18.9333 19.7225Z" fill="#E7EA5C"/>
<path d="M18.108 20.4625L11.5804 10.0073H20.4239L24.3513 16.2912L28.36 10.0073H31.8947L26.0171 18.9727L33.0052 30.1321L24.1617 30.1456L19.7467 23.1033L15.1828 30.1456H11.6345L18.108 20.4625Z" fill="#E7EA5C" fill-opacity="0.6"/>
<path d="M13.3005 20.2875L1.17766 0.870843H17.6013L24.8951 12.5409L32.3399 0.870843H38.9043L27.9887 17.5209L40.9667 38.2454L24.543 38.2705L16.3438 25.1919L7.86785 38.2705H1.27827L13.3005 20.2875Z" fill="#FFB7C8" fill-opacity="0.29"/>
</g>
</svg>
